{"title":"Water for Elephants-AC3-XviD-DVDRip 2011","uid":6611620,"size":1673256840,"categoryP":"video","categoryS":"movies","magnet":"?xt=urn:btih:a9c2d9e62281e05d92ad728e2ffc0d0a683b9118&amp;dn=Water+for+Elephants-AC3-XviD-DVDRip+2011&amp;tr=udp%3A%2F%2Ftracker.openbittorrent.com%3A80&amp;tr=udp%3A%2F%2Fopen.demonii.com%3A1337&amp;tr=udp%3A%2F%2Ftracker.coppersurfer.tk%3A6969&amp;tr=udp%3A%2F%2Fexodus.desync.com%3A6969","seeders":0,"leechers":1,"uploader":"FatFreddy31","files":-1,"time":1313615546,"description":"[img]http://img825.imageshack.us/img825/5103/waterforelephantsk.jpg[/img]\n &lt;a href=&quot;\nhttp://www.imdb.com/title/tt1067583/&quot; rel=&quot;nofollow&quot; target=&quot;_NEW&quot;&gt;\nhttp://www.imdb.com/title/tt1067583/&lt;/a&gt;\n &lt;a href=&quot;\nhttp://www.moviemeter.nl/film/72655&quot; rel=&quot;nofollow&quot; target=&quot;_NEW&quot;&gt;\nhttp://www.moviemeter.nl/film/72655&lt;/a&gt;\n\nSubs: Dutch, English (srt).\n\n\nGeneral\nComplete name                    : Water for Elephants-AC3-XviD-DVDRip 2011\\\\Water for Elephants-AC3-XviD-DVDRip 2011.avi\nFormat                           : AVI\nFormat/Info                      : Audio Video Interleave\nFile size                        : 1.56 GiB\nDuration                         : 1h 55mn\nOverall bit rate                 : 1 931 Kbps\nWriting application              : VirtualDubMod 1.5.4.1 (build 2178/release)\nWriting library                  : VirtualDubMod build 2178/release\n\nVideo\nID                               : 0\nFormat                           : MPEG-4 Visual\nFormat profile                   : Simple@L3\nFormat settings, BVOP            : No\nFormat settings, QPel            : No\nFormat settings, GMC             : No warppoints\nFormat settings, Matrix          : Default (H.263)\nCodec ID                         : XVID\nCodec ID/Hint                    : XviD\nDuration                         : 1h 55mn\nBit rate                         : 1 473 Kbps\nWidth                            : 720 pixels\nHeight                           : 304 pixels\nDisplay aspect ratio             : 2.35:1\nFrame rate                       : 25.000 fps\nColor space                      : YUV\nChroma subsampling               : 4:2:0\nBit depth                        : 8 bits\nScan type                        : Progressive\nCompression mode                 : Lossy\nBits/(Pixel*Frame)               : 0.269\nStream size                      : 1.19 GiB (76%)\nWriting library                  : XviD 1.1.2 (UTC 2006-11-01)\n\nAudio\nID                               : 1\nFormat                           : AC-3\nFormat/Info                      : Audio Coding 3\nMode extension                   : CM (complete main)\nCodec ID                         : 2000\nDuration                         : 1h 55mn\nBit rate mode                    : Constant\nBit rate                         : 448 Kbps\nChannel(s)                       : 6 channels\nChannel positions                : Front: L C R, Side: L R, LFE\nSampling rate                    : 48.0 KHz\nBit depth                        : 16 bits\nCompression mode                 : Lossy\nStream size                      : 370 MiB (23%)\nAlignment                        : Split accross interleaves\nInterleave, duration             : 40 ms (1.00 video frame)\nInterleave, preload duration     : 500 ms\n\nThanks to hannes3 &amp; Simply ReleaseS Toppers.\n\n[img]http://img405.imageshack.us/img405/6459/waterforelephantsac3xvi.jpg[/img]","torrent":{"xt":"urn:btih:a9c2d9e62281e05d92ad728e2ffc0d0a683b9118","amp;dn":"Water+for+Elephants-AC3-XviD-DVDRip+2011","amp;tr":["udp%3A%2F%2Ftracker.openbittorrent.com%3A80","udp%3A%2F%2Fopen.demonii.com%3A1337","udp%3A%2F%2Ftracker.coppersurfer.tk%3A6969","udp%3A%2F%2Fexodus.desync.com%3A6969"],"infoHash":"a9c2d9e62281e05d92ad728e2ffc0d0a683b9118","infoHashBuffer":{"type":"Buffer","data":[169,194,217,230,34,129,224,93,146,173,114,142,47,252,13,10,104,59,145,24]},"announce":[],"urlList":[]}}